<svg width="766" height="835" viewBox="0 0 766 835" fill="none" xmlns="http://www.w3.org/2000/svg">
<path d="M200.35 445.5C198.65 445.5 197.3 445.2 196.3 444.6C195.4 444 194.75 443.2 194.35 442.2C193.95 441.1 193.75 439.9 193.75 438.6V347.4C193.75 346.1 193.9 344.95 194.2 343.95C194.6 342.95 195.3 342.15 196.3 341.55C197.3 340.95 198.7 340.65 200.5 340.65L230.05 340.8C237.45 340.8 244.15 342.05 250.15 344.55C256.25 346.95 261.45 350.4 265.75 354.9C270.05 359.4 273.35 364.85 275.65 371.25C277.95 377.65 279.1 384.75 279.1 392.55C279.1 400.65 277.95 407.95 275.65 414.45C273.35 420.95 270 426.5 265.6 431.1C261.3 435.7 256.1 439.25 250 441.75C243.9 444.25 237.1 445.5 229.6 445.5H200.35ZM207.25 431.85H230.05C237.35 431.85 243.65 430.3 248.95 427.2C254.25 424 258.35 419.55 261.25 413.85C264.15 408.05 265.6 401.2 265.6 393.3C265.6 385.3 264.15 378.4 261.25 372.6C258.35 366.8 254.2 362.35 248.8 359.25C243.5 356.05 237.2 354.45 229.9 354.45H207.25V431.85ZM321.937 444.72C320.197 444.72 318.907 444.39 318.067 443.73C317.227 443.07 316.807 442.17 316.807 441.03L317.437 438.06C316.957 438.84 316.147 439.77 315.007 440.85C313.867 441.87 312.367 442.8 310.507 443.64C308.647 444.42 306.397 444.81 303.757 444.81C300.937 444.81 298.267 444.24 295.747 443.1C293.287 441.9 291.097 440.28 289.177 438.24C287.317 436.14 285.817 433.77 284.677 431.13C283.597 428.43 283.057 425.55 283.057 422.49C283.057 419.55 283.597 416.79 284.677 414.21C285.817 411.57 287.347 409.23 289.267 407.19C291.187 405.15 293.377 403.56 295.837 402.42C298.357 401.22 300.997 400.62 303.757 400.62C306.217 400.62 308.287 400.95 309.967 401.61C311.707 402.27 313.177 403.11 314.377 404.13C315.577 405.09 316.567 406.11 317.347 407.19L316.807 404.58C316.807 403.26 317.227 402.27 318.067 401.61C318.907 400.89 320.227 400.53 322.027 400.53C323.707 400.53 324.907 400.8 325.627 401.34C326.347 401.82 326.797 402.51 326.977 403.41C327.157 404.25 327.247 405.21 327.247 406.29V439.23C327.247 440.25 327.157 441.18 326.977 442.02C326.797 442.86 326.317 443.52 325.537 444C324.817 444.48 323.617 444.72 321.937 444.72ZM305.377 434.28C307.417 434.28 309.247 433.77 310.867 432.75C312.487 431.73 313.777 430.35 314.737 428.61C315.757 426.81 316.267 424.83 316.267 422.67C316.267 420.33 315.757 418.29 314.737 416.55C313.717 414.81 312.367 413.46 310.687 412.5C309.067 411.48 307.237 410.97 305.197 410.97C302.977 410.97 300.997 411.51 299.257 412.59C297.517 413.61 296.137 415.02 295.117 416.82C294.157 418.56 293.677 420.54 293.677 422.76C293.677 424.92 294.187 426.87 295.207 428.61C296.227 430.35 297.607 431.73 299.347 432.75C301.147 433.77 303.157 434.28 305.377 434.28ZM353.648 444.9C350.708 444.9 348.188 444.6 346.088 444C343.988 443.4 342.278 442.47 340.958 441.21C339.638 439.95 338.648 438.33 337.988 436.35C337.388 434.31 337.088 431.91 337.088 429.15V390.99C337.088 389.91 337.178 388.98 337.358 388.2C337.598 387.42 338.078 386.82 338.798 386.4C339.578 385.92 340.778 385.68 342.398 385.68C344.078 385.68 345.278 385.92 345.998 386.4C346.778 386.88 347.258 387.54 347.438 388.38C347.678 389.16 347.798 390.03 347.798 390.99V428.79C347.798 430.05 347.888 431.07 348.068 431.85C348.308 432.63 348.638 433.23 349.058 433.65C349.538 434.01 350.138 434.28 350.858 434.46C351.638 434.58 352.568 434.64 353.648 434.64C354.788 434.64 355.748 434.73 356.528 434.91C357.368 435.09 357.998 435.54 358.418 436.26C358.838 436.92 359.048 438.03 359.048 439.59C359.048 441.27 358.778 442.5 358.238 443.28C357.758 444 357.098 444.45 356.258 444.63C355.478 444.81 354.608 444.9 353.648 444.9ZM333.398 401.43L342.668 401.52L355.088 401.16C356.108 401.16 357.008 401.28 357.788 401.52C358.628 401.7 359.288 402.18 359.768 402.96C360.248 403.68 360.488 404.88 360.488 406.56C360.488 408.12 360.248 409.29 359.768 410.07C359.288 410.85 358.658 411.36 357.878 411.6C357.098 411.78 356.198 411.87 355.178 411.87L343.118 411.69L333.128 411.78C331.628 411.72 330.578 411.3 329.978 410.52C329.438 409.68 329.168 408.33 329.168 406.47C329.168 404.73 329.498 403.47 330.158 402.69C330.878 401.85 331.958 401.43 333.398 401.43ZM399.598 444.72C397.858 444.72 396.568 444.39 395.728 443.73C394.888 443.07 394.468 442.17 394.468 441.03L395.098 438.06C394.618 438.84 393.808 439.77 392.668 440.85C391.528 441.87 390.028 442.8 388.168 443.64C386.308 444.42 384.058 444.81 381.418 444.81C378.598 444.81 375.928 444.24 373.408 443.1C370.948 441.9 368.758 440.28 366.838 438.24C364.978 436.14 363.478 433.77 362.338 431.13C361.258 428.43 360.718 425.55 360.718 422.49C360.718 419.55 361.258 416.79 362.338 414.21C363.478 411.57 365.008 409.23 366.928 407.19C368.848 405.15 371.038 403.56 373.498 402.42C376.018 401.22 378.658 400.62 381.418 400.62C383.878 400.62 385.948 400.95 387.628 401.61C389.368 402.27 390.838 403.11 392.038 404.13C393.238 405.09 394.228 406.11 395.008 407.19L394.468 404.58C394.468 403.26 394.888 402.27 395.728 401.61C396.568 400.89 397.888 400.53 399.688 400.53C401.368 400.53 402.568 400.8 403.288 401.34C404.008 401.82 404.458 402.51 404.638 403.41C404.818 404.25 404.908 405.21 404.908 406.29V439.23C404.908 440.25 404.818 441.18 404.638 442.02C404.458 442.86 403.978 443.52 403.198 444C402.478 444.48 401.278 444.72 399.598 444.72ZM383.038 434.28C385.078 434.28 386.908 433.77 388.528 432.75C390.148 431.73 391.438 430.35 392.398 428.61C393.418 426.81 393.928 424.83 393.928 422.67C393.928 420.33 393.418 418.29 392.398 416.55C391.378 414.81 390.028 413.46 388.348 412.5C386.728 411.48 384.898 410.97 382.858 410.97C380.638 410.97 378.658 411.51 376.918 412.59C375.178 413.61 373.798 415.02 372.778 416.82C371.818 418.56 371.338 420.54 371.338 422.76C371.338 424.92 371.848 426.87 372.868 428.61C373.888 430.35 375.268 431.73 377.008 432.75C378.808 433.77 380.818 434.28 383.038 434.28ZM418.84 462.63C416.92 461.79 415.81 460.83 415.51 459.75C415.21 458.73 415.48 457.35 416.32 455.61L439.54 403.59C440.38 401.67 441.28 400.53 442.24 400.17C443.2 399.75 444.67 399.96 446.65 400.8C448.51 401.64 449.59 402.57 449.89 403.59C450.25 404.61 450.04 405.99 449.26 407.73L425.86 460.02C425.08 461.94 424.21 463.05 423.25 463.35C422.29 463.71 420.82 463.47 418.84 462.63ZM427.21 440.58L406.42 408.63C405.34 407.01 404.89 405.66 405.07 404.58C405.31 403.5 406.27 402.45 407.95 401.43C409.81 400.29 411.25 399.84 412.27 400.08C413.35 400.32 414.43 401.28 415.51 402.96L431.98 428.61L427.21 440.58ZM488.947 444.72C487.207 444.72 485.917 444.39 485.077 443.73C484.237 443.07 483.817 442.17 483.817 441.03L484.447 438.06C483.967 438.84 483.157 439.77 482.017 440.85C480.877 441.87 479.377 442.8 477.517 443.64C475.657 444.42 473.407 444.81 470.767 444.81C467.947 444.81 465.277 444.24 462.757 443.1C460.297 441.9 458.107 440.28 456.187 438.24C454.327 436.14 452.827 433.77 451.687 431.13C450.607 428.43 450.067 425.55 450.067 422.49C450.067 419.55 450.607 416.79 451.687 414.21C452.827 411.57 454.357 409.23 456.277 407.19C458.197 405.15 460.387 403.56 462.847 402.42C465.367 401.22 468.007 400.62 470.767 400.62C473.227 400.62 475.297 400.95 476.977 401.61C478.717 402.27 480.187 403.11 481.387 404.13C482.587 405.09 483.577 406.11 484.357 407.19L483.817 404.58C483.817 403.26 484.237 402.27 485.077 401.61C485.917 400.89 487.237 400.53 489.037 400.53C490.717 400.53 491.917 400.8 492.637 401.34C493.357 401.82 493.807 402.51 493.987 403.41C494.167 404.25 494.257 405.21 494.257 406.29V439.23C494.257 440.25 494.167 441.18 493.987 442.02C493.807 442.86 493.327 443.52 492.547 444C491.827 444.48 490.627 444.72 488.947 444.72ZM472.387 434.28C474.427 434.28 476.257 433.77 477.877 432.75C479.497 431.73 480.787 430.35 481.747 428.61C482.767 426.81 483.277 424.83 483.277 422.67C483.277 420.33 482.767 418.29 481.747 416.55C480.727 414.81 479.377 413.46 477.697 412.5C476.077 411.48 474.247 410.97 472.207 410.97C469.987 410.97 468.007 411.51 466.267 412.59C464.527 413.61 463.147 415.02 462.127 416.82C461.167 418.56 460.687 420.54 460.687 422.76C460.687 424.92 461.197 426.87 462.217 428.61C463.237 430.35 464.617 431.73 466.357 432.75C468.157 433.77 470.167 434.28 472.387 434.28ZM534.067 435.18C535.627 436.5 536.437 437.73 536.497 438.87C536.617 440.01 536.017 441.33 534.697 442.83C533.677 443.97 532.777 444.72 531.997 445.08C531.217 445.44 530.437 445.44 529.657 445.08C528.877 444.78 527.947 444.18 526.867 443.28L509.677 428.79V439.5C509.677 440.46 509.557 441.36 509.317 442.2C509.137 443.04 508.657 443.7 507.877 444.18C507.157 444.66 505.957 444.9 504.277 444.9C502.597 444.9 501.367 444.63 500.587 444.09C499.867 443.61 499.417 442.95 499.237 442.11C499.057 441.27 498.967 440.37 498.967 439.41V385.68C498.967 384.66 499.057 383.76 499.237 382.98C499.477 382.14 499.957 381.48 500.677 381C501.457 380.46 502.687 380.19 504.367 380.19C506.047 380.19 507.247 380.46 507.967 381C508.687 381.48 509.137 382.14 509.317 382.98C509.557 383.76 509.677 384.69 509.677 385.77V415.29L522.097 403.23C523.057 402.33 523.957 401.73 524.797 401.43C525.637 401.07 526.447 401.04 527.227 401.34C528.067 401.58 528.937 402.21 529.837 403.23C531.337 404.85 532.057 406.2 531.997 407.28C531.937 408.3 531.187 409.53 529.747 410.97L517.597 422.22L534.067 435.18ZM556.999 445.44C554.119 445.44 551.299 444.9 548.539 443.82C545.839 442.68 543.379 441.09 541.159 439.05C538.999 437.01 537.259 434.61 535.939 431.85C534.679 429.09 534.049 426.06 534.049 422.76C534.049 419.58 534.649 416.61 535.849 413.85C537.049 411.09 538.699 408.66 540.799 406.56C542.899 404.46 545.299 402.84 547.999 401.7C550.759 400.5 553.699 399.9 556.819 399.9C561.019 399.9 564.829 400.92 568.249 402.96C571.669 404.94 574.399 407.64 576.439 411.06C578.479 414.48 579.499 418.35 579.499 422.67C579.499 426.09 578.869 429.21 577.609 432.03C576.349 434.79 574.639 437.19 572.479 439.23C570.319 441.21 567.889 442.74 565.189 443.82C562.549 444.9 559.819 445.44 556.999 445.44ZM556.819 434.82C558.799 434.82 560.689 434.34 562.489 433.38C564.349 432.36 565.849 430.92 566.989 429.06C568.189 427.2 568.789 425.01 568.789 422.49C568.789 420.15 568.249 418.08 567.169 416.28C566.149 414.48 564.739 413.07 562.939 412.05C561.139 411.03 559.069 410.52 556.729 410.52C554.509 410.52 552.499 411.06 550.699 412.14C548.899 413.16 547.459 414.6 546.379 416.46C545.359 418.26 544.849 420.3 544.849 422.58C544.849 425.1 545.419 427.29 546.559 429.15C547.699 430.95 549.169 432.36 550.969 433.38C552.829 434.34 554.779 434.82 556.819 434.82Z" fill="#F2880C"/>
<path d="M203.893 351C198.983 351 195 355.127 195 360.214V427.786C195 432.873 198.983 437 203.893 437H249.796C253.378 437 260.103 430.303 265.472 423.103C269.21 418.09 271.203 412.066 272.283 405.907V405.907C275.809 385.814 268.709 364.446 251.305 353.802C248.515 352.096 246.299 351 245.211 351H203.893ZM229.668 363.287C230.243 363.297 230.826 363.374 231.417 363.497C231.931 363.603 232.057 364.146 231.565 364.33C231.511 364.351 231.457 364.371 231.404 364.391C230.976 364.557 231.086 364.973 231.523 364.835V364.835C232.044 364.669 232.409 365.213 232.504 365.751C232.537 365.941 232.615 366.119 232.723 366.29C233.08 366.855 232.956 367.618 232.323 367.833L216.577 373.187C215.501 373.553 214.691 372.492 215.418 371.618C215.442 371.59 215.465 371.563 215.488 371.535C215.489 371.534 215.49 371.533 215.491 371.532V371.532C215.495 371.528 215.498 371.523 215.499 371.518C215.665 370.848 216.186 370.544 216.733 370.277V370.277C217.932 369.691 217.992 367.848 219.225 367.336C219.287 367.31 219.352 367.286 219.42 367.264C221.153 366.693 222.687 365.619 224.507 365.215C225.063 365.092 225.649 364.583 226.206 364.232C226.206 364.232 226.207 364.232 226.207 364.233V364.233C226.206 364.233 226.207 364.234 226.207 364.233C227.338 363.522 228.488 363.265 229.668 363.287ZM238.267 368.096C239.484 367.144 240.987 368.37 242.496 368.704V368.704L243.066 368.752C243.067 368.752 243.067 368.752 243.068 368.752L243.071 368.75C243.072 368.75 243.072 368.75 243.072 368.751V368.751C243.072 368.752 243.073 368.752 243.073 368.752C243.808 368.722 244.532 368.558 245.211 368.266C246.213 367.851 246.907 368.154 247.302 369.191C247.302 369.191 247.302 369.192 247.302 369.192V369.192C247.302 369.192 247.302 369.192 247.303 369.192L247.303 369.192C247.303 369.192 247.303 369.192 247.303 369.192C247.505 369.682 247.7 370.175 247.791 370.694C247.87 371.14 247.605 371.556 247.213 371.782L239.593 376.178C239.455 376.258 239.225 376.229 239.238 376.49C239.238 376.492 239.239 376.494 239.242 376.495V376.495C239.242 376.495 239.243 376.495 239.243 376.495C240.915 376.259 242.359 375.355 243.914 374.778C245.469 374.202 247.025 373.563 248.543 372.862C249.198 372.56 249.515 372.726 249.796 373.323C250.119 374.018 250.375 374.73 250.426 375.506C250.426 375.508 250.426 375.509 250.425 375.511V375.511C250.424 375.512 250.423 375.514 250.423 375.515C250.583 376.557 250.984 377.51 251.432 378.445C251.433 378.446 251.433 378.447 251.433 378.448V378.448C251.433 378.451 251.434 378.453 251.436 378.455C252.085 379.143 251.337 379.22 251.008 379.397C247.164 381.45 243.321 383.502 239.477 385.555C236.582 387.107 233.684 388.652 230.783 390.191C230.51 390.335 230.225 390.681 229.919 390.506C228.309 389.584 226.568 390.173 224.896 389.997C224.705 389.976 224.512 389.976 224.318 389.98C224.002 389.986 223.696 390.126 223.381 390.16C223.251 390.173 223.118 390.166 222.983 390.154C222.982 390.154 222.981 390.154 222.98 390.154L222.979 390.155C222.977 390.156 222.975 390.155 222.973 390.154L222.972 390.154C222.972 390.153 222.972 390.153 222.971 390.153L222.968 390.153C222.967 390.153 222.967 390.153 222.967 390.153V390.153C222.968 390.152 222.967 390.152 222.967 390.152C222.182 390.293 221.405 390.282 220.672 389.928C220.201 389.704 219.808 389.772 219.592 390.244C219.208 391.074 218.62 390.973 217.988 390.682C217.31 390.372 216.642 390.035 215.971 389.709C215.97 389.708 215.968 389.708 215.967 389.709V389.709C215.966 389.709 215.965 389.71 215.963 389.709C215.313 389.481 214.631 389.315 214.066 388.916C213.679 388.642 213.248 388.365 213.026 387.947C212.897 387.705 213.054 387.491 213.664 387.287V387.287C216.839 386.223 219.893 384.72 222.855 383.156L224.24 382.425L228.113 380.073C228.123 380.067 228.131 380.058 228.136 380.047C228.151 380.014 228.169 379.984 228.188 379.958C228.217 379.918 228.17 379.798 228.121 379.797V379.797C228.115 379.796 228.108 379.798 228.102 379.8C224.313 381.523 220.526 383.247 216.739 384.972C215.54 385.519 214.34 386.066 213.157 386.65C212.635 386.907 212.318 386.935 212.192 386.229C211.993 385.117 211.731 384.015 212.043 382.882C212.044 382.881 212.044 382.88 212.045 382.88V382.88C212.046 382.879 212.047 382.878 212.047 382.877C212.046 382.727 212.086 382.58 212.163 382.454V382.454C212.316 382.204 212.62 382.095 212.828 381.889C213.599 381.122 213.237 380.13 213.026 379.183C212.7 377.724 212.763 377.59 214.177 377.111C218.599 375.044 223.023 372.978 227.447 370.915C229.355 370.03 231.283 369.185 233.164 368.24C233.978 367.831 234.678 367.712 235.396 368.34C236.348 369.172 237.29 368.959 238.129 368.212C238.175 368.171 238.221 368.133 238.267 368.096ZM252.647 380.954C252.958 380.935 253.202 381.108 253.44 381.544C253.864 382.327 255.03 382.94 254.844 383.685C254.701 384.26 253.475 384.553 252.724 384.96C251.012 385.889 249.299 386.813 247.583 387.735C247.564 387.746 247.547 387.765 247.538 387.785V387.785C247.494 387.879 247.596 388.032 247.698 388.016C247.731 388.011 247.765 388.007 247.799 388.003C247.811 388.002 247.823 387.999 247.834 387.994C250.215 386.999 252.595 386.006 254.977 385.014C255.285 384.887 255.609 384.575 255.913 385.006C255.914 385.007 255.913 385.008 255.913 385.008V385.008C255.912 385.008 255.912 385.008 255.912 385.009C256.562 385.928 257.538 385.91 258.484 385.983C258.485 385.983 258.486 385.984 258.485 385.985V385.985C258.485 385.986 258.487 385.987 258.488 385.986L258.489 385.986C258.489 385.986 258.489 385.985 258.489 385.985C259.013 385.899 259.509 385.688 259.94 385.369C260.62 384.897 260.897 385.231 261.019 385.883C261.019 385.884 261.018 385.884 261.018 385.884V385.884C261.018 385.883 261.017 385.883 261.017 385.884C261.102 386.345 261.157 386.818 261.007 387.283C259.452 388.353 257.639 388.851 255.987 389.706C255.68 389.865 255.368 390.016 255.058 390.169C255.046 390.175 255.035 390.185 255.027 390.195V390.195C254.967 390.273 255.054 390.46 255.151 390.447C255.264 390.432 255.379 390.42 255.494 390.411C255.505 390.411 255.517 390.408 255.528 390.405L256.792 390.003C258.105 389.585 259.4 391.234 258.237 391.973V391.973L258.235 391.974C258.233 391.976 258.235 391.979 258.237 391.978V391.978C258.239 391.977 258.24 391.979 258.239 391.981C257.728 392.725 256.782 393.013 256.361 393.851C256.337 393.898 256.312 393.944 256.282 393.986L255.018 395.806C254.627 396.368 254.31 396.98 253.944 397.559C253.548 398.185 253.095 398.779 252.868 399.503C252.868 399.503 252.868 399.504 252.867 399.504V399.504C252.867 399.505 252.867 399.505 252.866 399.506C252.804 399.851 252.741 400.195 252.678 400.539C252.629 401.341 253.274 402.284 252.797 402.87C252.353 403.412 251.415 403.535 250.684 403.813C245.153 405.921 239.617 408.016 234.077 410.097C233.712 410.235 233.271 410.721 232.938 410.308C232.765 410.094 232.659 409.83 232.635 409.552C232.612 409.274 232.671 408.995 232.805 408.753C232.805 408.753 232.805 408.753 232.806 408.753V408.753C232.806 408.753 232.806 408.752 232.806 408.752C233.243 407.118 233.829 405.526 233.753 403.775C233.729 403.205 234.146 402.973 234.607 402.834C234.815 402.772 235.005 402.663 235.19 402.551C235.355 402.451 235.537 402.383 235.726 402.35C235.778 402.342 235.821 402.302 235.871 402.284V402.284V402.284C235.92 402.267 235.978 402.274 236.024 402.25C237.448 401.469 238.917 400.781 240.423 400.188C240.587 400.123 240.718 399.987 240.877 399.91V399.91V399.91C241.034 399.834 241.22 399.817 241.371 399.731C241.894 399.434 242.427 399.168 243.004 399.003C243.031 398.995 243.058 398.985 243.083 398.973L247.121 396.992C247.121 396.992 247.121 396.992 247.121 396.992V396.992C247.121 396.992 247.121 396.992 247.121 396.992L247.017 396.881C246.948 396.808 246.844 396.782 246.749 396.813C243.058 398.048 239.355 399.246 235.687 400.548C235.38 400.657 235.11 400.732 234.879 400.751C233.782 400.839 233.524 399.204 232.853 398.332V398.332L232.416 397.73C232.415 397.729 232.415 397.729 232.416 397.729V397.729C232.417 397.728 232.417 397.728 232.416 397.727L232.414 397.727C232.414 397.727 232.414 397.727 232.414 397.726C232.129 397.291 231.928 396.803 231.82 396.291C231.776 396.084 231.768 395.871 231.772 395.66C231.778 395.375 231.784 395.09 231.79 394.805V394.802C231.79 394.802 231.79 394.802 231.79 394.801V394.801C231.791 394.801 231.791 394.801 231.791 394.8C231.771 394.002 231.89 393.197 231.495 392.436C231.193 391.85 231.826 391.876 232.052 391.756C235.635 389.834 239.235 387.952 242.831 386.049C245.891 384.434 248.959 382.836 252 381.183C252.249 381.047 252.46 380.966 252.647 380.954ZM261.007 387.283V387.283C260.986 387.27 260.98 387.278 261.005 387.283C261.006 387.283 261.007 387.283 261.007 387.283ZM252.96 403.95C253.188 403.965 253.273 404.167 253.299 404.516C253.412 406.054 253.251 407.517 252.219 408.741C252.219 408.742 252.218 408.742 252.218 408.742L252.218 408.742C252.218 408.742 252.218 408.743 252.219 408.743V408.743C252.22 408.743 252.22 408.743 252.22 408.744C251.508 410.534 250.348 411.931 248.646 412.718C244.644 414.565 240.598 416.309 236.596 418.155C235.721 418.558 235.575 418.302 235.629 417.468C235.652 417.108 235.566 416.74 235.531 416.376V416.374C235.234 415.051 234.704 413.816 234.127 412.608C233.891 412.111 233.99 411.936 234.451 411.737C240.49 409.188 246.523 406.625 252.551 404.047C252.722 403.974 252.856 403.943 252.96 403.95ZM259.605 406.238C259.678 406.238 259.751 406.249 259.822 406.27C260.481 406.46 260.146 407.159 260.135 407.659C259.953 409.995 259.558 412.205 257.125 413.254C256.778 413.404 256.468 413.643 256.142 413.841C256.134 413.846 256.127 413.854 256.122 413.863V413.863C256.091 413.918 256.189 414.105 256.251 414.096C256.286 414.091 256.32 414.083 256.354 414.071C256.355 414.07 256.356 414.069 256.357 414.067V414.067C256.357 414.065 256.358 414.064 256.36 414.063L256.99 413.865C257.665 413.653 258.35 414.132 258.146 414.81C258.115 414.912 258.081 415.013 258.045 415.114C258.021 415.179 258.002 415.245 257.989 415.313C257.786 416.357 257.75 417.484 256.446 417.871C255.335 418.199 254.949 418.05 254.435 416.878C254.435 416.877 254.434 416.877 254.433 416.877V416.877C254.432 416.877 254.431 416.876 254.431 416.875C254.258 416.197 254.432 415.551 254.597 414.903C254.601 414.886 254.608 414.871 254.619 414.857C254.64 414.832 254.662 414.807 254.685 414.784C254.75 414.718 254.723 414.539 254.653 414.479V414.479C254.638 414.466 254.624 414.444 254.62 414.425C254.371 413.117 255.231 411.966 255.1 410.623C255.036 409.975 255.941 409.432 256.601 409.54C257.539 409.695 257.776 409.13 258.072 408.498C258.072 408.498 258.072 408.498 258.073 408.497V408.497C258.073 408.497 258.074 408.496 258.074 408.496C258.243 408.069 258.387 407.629 258.586 407.218C258.809 406.757 259.124 406.242 259.605 406.238ZM248.636 413.568C248.637 413.567 248.638 413.568 248.639 413.569V413.569C248.639 413.569 248.639 413.569 248.639 413.57C248.713 414.475 248.351 415.236 248.074 415.989C247.707 416.984 247.284 417.831 246.788 418.769C246.768 418.808 246.749 418.849 246.734 418.892V418.892C246.734 418.893 246.734 418.895 246.734 418.896C246.892 419.768 246.419 420.242 245.748 420.625C245.598 420.711 245.448 420.797 245.298 420.885C243.562 421.896 242.453 424.009 240.535 424.606C240.02 424.766 239.476 424.752 238.954 424.541C238.689 424.434 238.414 424.348 238.145 424.255C237.901 424.171 237.686 424.028 237.515 423.792C237.515 423.791 237.514 423.79 237.513 423.79L237.512 423.79C237.512 423.79 237.512 423.79 237.512 423.79H237.511C237.511 423.79 237.511 423.789 237.511 423.789V423.789C237.511 423.789 237.51 423.789 237.51 423.788C236.923 423.439 236.426 423.01 236.146 422.389C236.025 422.122 235.914 421.849 235.812 421.574C235.548 420.858 235.807 420.378 236.673 419.932C240.631 417.894 244.542 415.757 248.636 413.568Z" fill="#F2880C"/>
</svg>
