<svg width="460" height="553" viewBox="0 0 460 553" fill="none" xmlns="http://www.w3.org/2000/svg">
<path d="M143.205 289.813C142.398 289.813 141.756 289.67 141.281 289.385C140.853 289.099 140.544 288.719 140.354 288.244C140.164 287.721 140.069 287.15 140.069 286.532V243.171C140.069 242.553 140.14 242.006 140.283 241.531C140.473 241.055 140.806 240.675 141.281 240.39C141.756 240.104 142.421 239.962 143.277 239.962L157.319 240.033C160.835 240.033 164.019 240.627 166.87 241.816C169.769 242.957 172.24 244.597 174.283 246.737C176.327 248.876 177.895 251.468 178.988 254.51C180.081 257.553 180.627 260.929 180.627 264.638C180.627 268.489 180.081 271.959 178.988 275.05C177.895 278.14 176.303 280.779 174.212 282.966C172.169 285.153 169.698 286.841 166.799 288.03C163.9 289.218 160.669 289.813 157.105 289.813H143.205ZM146.484 283.323H157.319C160.788 283.323 163.781 282.586 166.3 281.112C168.819 279.59 170.767 277.475 172.145 274.765C173.523 272.007 174.212 268.75 174.212 264.994C174.212 261.191 173.523 257.91 172.145 255.152C170.767 252.395 168.795 250.279 166.229 248.805C163.71 247.284 160.716 246.523 157.248 246.523H146.484V283.323ZM200.983 289.442C200.156 289.442 199.543 289.285 199.144 288.971C198.745 288.657 198.545 288.229 198.545 287.687L198.845 286.275C198.617 286.646 198.232 287.088 197.69 287.602C197.148 288.087 196.435 288.529 195.552 288.928C194.668 289.299 193.599 289.485 192.344 289.485C191.004 289.485 189.735 289.214 188.538 288.671C187.369 288.101 186.328 287.331 185.416 286.361C184.532 285.362 183.819 284.236 183.277 282.98C182.764 281.697 182.508 280.327 182.508 278.872C182.508 277.475 182.764 276.162 183.277 274.936C183.819 273.681 184.546 272.568 185.458 271.598C186.371 270.628 187.412 269.872 188.581 269.33C189.778 268.76 191.033 268.474 192.344 268.474C193.513 268.474 194.497 268.631 195.295 268.945C196.122 269.259 196.82 269.658 197.391 270.143C197.961 270.6 198.431 271.085 198.802 271.598L198.545 270.357C198.545 269.73 198.745 269.259 199.144 268.945C199.543 268.603 200.171 268.432 201.026 268.432C201.824 268.432 202.394 268.56 202.737 268.817C203.079 269.045 203.293 269.373 203.378 269.801C203.464 270.2 203.506 270.657 203.506 271.17V286.832C203.506 287.316 203.464 287.759 203.378 288.158C203.293 288.557 203.064 288.871 202.694 289.099C202.352 289.328 201.781 289.442 200.983 289.442ZM193.114 284.478C194.083 284.478 194.953 284.236 195.723 283.751C196.493 283.266 197.106 282.61 197.562 281.782C198.046 280.926 198.289 279.985 198.289 278.958C198.289 277.846 198.046 276.876 197.562 276.048C197.077 275.221 196.435 274.579 195.637 274.123C194.867 273.638 193.998 273.395 193.028 273.395C191.973 273.395 191.033 273.652 190.206 274.166C189.379 274.65 188.723 275.321 188.238 276.177C187.782 277.004 187.554 277.945 187.554 279.001C187.554 280.028 187.796 280.955 188.281 281.782C188.766 282.61 189.422 283.266 190.248 283.751C191.104 284.236 192.059 284.478 193.114 284.478ZM216.052 289.527C214.655 289.527 213.457 289.385 212.46 289.099C211.462 288.814 210.649 288.372 210.022 287.773C209.395 287.174 208.924 286.404 208.61 285.462C208.325 284.492 208.183 283.351 208.183 282.039V263.896C208.183 263.382 208.226 262.94 208.311 262.569C208.425 262.198 208.653 261.913 208.995 261.714C209.366 261.485 209.936 261.371 210.706 261.371C211.504 261.371 212.075 261.485 212.417 261.714C212.787 261.942 213.016 262.256 213.101 262.655C213.215 263.026 213.272 263.439 213.272 263.896V281.868C213.272 282.467 213.315 282.952 213.4 283.323C213.515 283.694 213.671 283.979 213.871 284.178C214.099 284.35 214.384 284.478 214.726 284.564C215.097 284.621 215.539 284.649 216.052 284.649C216.594 284.649 217.05 284.692 217.421 284.778C217.82 284.863 218.119 285.077 218.319 285.419C218.518 285.733 218.618 286.261 218.618 287.003C218.618 287.801 218.49 288.386 218.233 288.757C218.005 289.099 217.691 289.313 217.292 289.399C216.922 289.485 216.508 289.527 216.052 289.527ZM206.429 268.86L210.834 268.902L216.736 268.731C217.221 268.731 217.649 268.788 218.019 268.902C218.419 268.988 218.732 269.216 218.96 269.587C219.188 269.929 219.302 270.5 219.302 271.299C219.302 272.04 219.188 272.597 218.96 272.967C218.732 273.338 218.433 273.581 218.062 273.695C217.691 273.78 217.264 273.823 216.779 273.823L211.048 273.738L206.301 273.78C205.588 273.752 205.089 273.552 204.804 273.181C204.548 272.782 204.419 272.14 204.419 271.256C204.419 270.429 204.576 269.829 204.89 269.459C205.232 269.059 205.745 268.86 206.429 268.86ZM237.887 289.442C237.06 289.442 236.447 289.285 236.048 288.971C235.649 288.657 235.45 288.229 235.45 287.687L235.749 286.275C235.521 286.646 235.136 287.088 234.594 287.602C234.052 288.087 233.34 288.529 232.456 288.928C231.572 289.299 230.503 289.485 229.248 289.485C227.908 289.485 226.639 289.214 225.442 288.671C224.273 288.101 223.232 287.331 222.32 286.361C221.436 285.362 220.723 284.236 220.182 282.98C219.668 281.697 219.412 280.327 219.412 278.872C219.412 277.475 219.668 276.162 220.182 274.936C220.723 273.681 221.45 272.568 222.363 271.598C223.275 270.628 224.316 269.872 225.485 269.33C226.682 268.76 227.937 268.474 229.248 268.474C230.417 268.474 231.401 268.631 232.199 268.945C233.026 269.259 233.725 269.658 234.295 270.143C234.865 270.6 235.335 271.085 235.706 271.598L235.45 270.357C235.45 269.73 235.649 269.259 236.048 268.945C236.447 268.603 237.075 268.432 237.93 268.432C238.728 268.432 239.299 268.56 239.641 268.817C239.983 269.045 240.197 269.373 240.282 269.801C240.368 270.2 240.411 270.657 240.411 271.17V286.832C240.411 287.316 240.368 287.759 240.282 288.158C240.197 288.557 239.969 288.871 239.598 289.099C239.256 289.328 238.686 289.442 237.887 289.442ZM230.018 284.478C230.987 284.478 231.857 284.236 232.627 283.751C233.397 283.266 234.01 282.61 234.466 281.782C234.951 280.926 235.193 279.985 235.193 278.958C235.193 277.846 234.951 276.876 234.466 276.048C233.981 275.221 233.34 274.579 232.541 274.123C231.772 273.638 230.902 273.395 229.933 273.395C228.878 273.395 227.937 273.652 227.11 274.166C226.283 274.65 225.627 275.321 225.143 276.177C224.686 277.004 224.458 277.945 224.458 279.001C224.458 280.028 224.701 280.955 225.185 281.782C225.67 282.61 226.326 283.266 227.153 283.751C228.008 284.236 228.963 284.478 230.018 284.478ZM247.031 297.957C246.119 297.558 245.591 297.101 245.449 296.588C245.306 296.103 245.434 295.447 245.834 294.619L256.868 269.886C257.267 268.974 257.694 268.432 258.151 268.26C258.607 268.061 259.305 268.161 260.246 268.56C261.13 268.959 261.643 269.402 261.786 269.886C261.957 270.371 261.857 271.028 261.486 271.855L250.367 296.716C249.996 297.629 249.583 298.157 249.127 298.299C248.67 298.471 247.972 298.356 247.031 297.957ZM251.008 287.473L241.129 272.283C240.616 271.513 240.402 270.871 240.488 270.357C240.602 269.844 241.058 269.344 241.856 268.86C242.74 268.318 243.424 268.104 243.909 268.218C244.422 268.332 244.935 268.788 245.449 269.587L253.275 281.782L251.008 287.473ZM280.346 289.442C279.519 289.442 278.906 289.285 278.507 288.971C278.107 288.657 277.908 288.229 277.908 287.687L278.207 286.275C277.979 286.646 277.594 287.088 277.052 287.602C276.511 288.087 275.798 288.529 274.914 288.928C274.03 289.299 272.961 289.485 271.707 289.485C270.366 289.485 269.098 289.214 267.9 288.671C266.731 288.101 265.691 287.331 264.778 286.361C263.894 285.362 263.182 284.236 262.64 282.98C262.127 281.697 261.87 280.327 261.87 278.872C261.87 277.475 262.127 276.162 262.64 274.936C263.182 273.681 263.909 272.568 264.821 271.598C265.733 270.628 266.774 269.872 267.943 269.33C269.14 268.76 270.395 268.474 271.707 268.474C272.875 268.474 273.859 268.631 274.657 268.945C275.484 269.259 276.183 269.658 276.753 270.143C277.323 270.6 277.794 271.085 278.164 271.598L277.908 270.357C277.908 269.73 278.107 269.259 278.507 268.945C278.906 268.603 279.533 268.432 280.388 268.432C281.187 268.432 281.757 268.56 282.099 268.817C282.441 269.045 282.655 269.373 282.741 269.801C282.826 270.2 282.869 270.657 282.869 271.17V286.832C282.869 287.316 282.826 287.759 282.741 288.158C282.655 288.557 282.427 288.871 282.056 289.099C281.714 289.328 281.144 289.442 280.346 289.442ZM272.476 284.478C273.446 284.478 274.315 284.236 275.085 283.751C275.855 283.266 276.468 282.61 276.924 281.782C277.409 280.926 277.651 279.985 277.651 278.958C277.651 277.846 277.409 276.876 276.924 276.048C276.439 275.221 275.798 274.579 275 274.123C274.23 273.638 273.36 273.395 272.391 273.395C271.336 273.395 270.395 273.652 269.568 274.166C268.741 274.65 268.086 275.321 267.601 276.177C267.145 277.004 266.917 277.945 266.917 279.001C266.917 280.028 267.159 280.955 267.644 281.782C268.128 282.61 268.784 283.266 269.611 283.751C270.466 284.236 271.421 284.478 272.476 284.478ZM301.786 284.906C302.528 285.534 302.913 286.118 302.941 286.66C302.998 287.202 302.713 287.83 302.086 288.543C301.601 289.085 301.173 289.442 300.803 289.613C300.432 289.784 300.061 289.784 299.691 289.613C299.32 289.47 298.878 289.185 298.365 288.757L290.196 281.868V286.96C290.196 287.416 290.139 287.844 290.025 288.244C289.94 288.643 289.712 288.957 289.341 289.185C288.999 289.413 288.429 289.527 287.63 289.527C286.832 289.527 286.248 289.399 285.877 289.142C285.535 288.914 285.321 288.6 285.235 288.201C285.15 287.801 285.107 287.374 285.107 286.917V261.371C285.107 260.886 285.15 260.458 285.235 260.088C285.349 259.688 285.577 259.374 285.92 259.146C286.29 258.889 286.875 258.761 287.673 258.761C288.471 258.761 289.042 258.889 289.384 259.146C289.726 259.374 289.94 259.688 290.025 260.088C290.139 260.458 290.196 260.901 290.196 261.414V275.449L296.098 269.715C296.554 269.287 296.982 269.002 297.381 268.86C297.781 268.688 298.165 268.674 298.536 268.817C298.935 268.931 299.349 269.23 299.776 269.715C300.489 270.486 300.831 271.127 300.803 271.641C300.774 272.126 300.418 272.711 299.734 273.395L293.96 278.744L301.786 284.906ZM312.684 289.784C311.315 289.784 309.975 289.527 308.663 289.014C307.38 288.472 306.211 287.716 305.156 286.746C304.13 285.776 303.303 284.635 302.676 283.323C302.077 282.01 301.778 280.57 301.778 279.001C301.778 277.489 302.063 276.077 302.633 274.765C303.203 273.452 303.988 272.297 304.985 271.299C305.983 270.3 307.124 269.53 308.407 268.988C309.718 268.417 311.115 268.132 312.598 268.132C314.594 268.132 316.404 268.617 318.03 269.587C319.655 270.528 320.952 271.812 321.921 273.438C322.891 275.064 323.376 276.904 323.376 278.958C323.376 280.584 323.076 282.068 322.477 283.408C321.879 284.721 321.066 285.862 320.04 286.832C319.013 287.773 317.858 288.5 316.575 289.014C315.321 289.527 314.024 289.784 312.684 289.784ZM312.598 284.735C313.539 284.735 314.437 284.507 315.292 284.05C316.176 283.565 316.889 282.881 317.431 281.996C318.001 281.112 318.286 280.071 318.286 278.872C318.286 277.76 318.03 276.776 317.516 275.92C317.032 275.064 316.362 274.394 315.506 273.909C314.651 273.424 313.667 273.181 312.555 273.181C311.5 273.181 310.545 273.438 309.69 273.952C308.835 274.437 308.15 275.121 307.637 276.006C307.152 276.861 306.91 277.831 306.91 278.915C306.91 280.113 307.181 281.155 307.723 282.039C308.264 282.895 308.963 283.565 309.818 284.05C310.702 284.507 311.629 284.735 312.598 284.735Z" fill="#F2880C"/>
<path d="M144.889 244.883C142.556 244.883 140.663 246.845 140.663 249.263V281.39C140.663 283.809 142.556 285.771 144.889 285.771H166.702C168.404 285.771 171.6 282.587 174.151 279.164C175.927 276.781 176.875 273.916 177.388 270.988C179.063 261.435 175.689 251.276 167.419 246.215C166.093 245.404 165.04 244.883 164.523 244.883H144.889ZM157.137 250.724C157.411 250.729 157.688 250.766 157.968 250.824C158.213 250.875 158.273 251.133 158.039 251.22C158.013 251.23 157.987 251.24 157.962 251.249C157.759 251.328 157.811 251.526 158.019 251.46C158.266 251.382 158.44 251.64 158.485 251.896C158.501 251.986 158.538 252.071 158.589 252.152C158.759 252.421 158.7 252.784 158.399 252.886L150.916 255.431C150.405 255.605 150.02 255.101 150.366 254.685C150.377 254.672 150.388 254.659 150.399 254.646C150.399 254.646 150.4 254.645 150.4 254.645C150.402 254.643 150.404 254.64 150.404 254.638C150.483 254.319 150.731 254.175 150.991 254.048C151.56 253.769 151.589 252.893 152.175 252.65C152.204 252.637 152.235 252.626 152.267 252.615C153.091 252.344 153.82 251.833 154.685 251.641C154.949 251.583 155.227 251.341 155.492 251.174C155.492 251.174 155.493 251.174 155.493 251.174C155.493 251.175 155.492 251.174 155.493 251.174C156.03 250.836 156.577 250.714 157.137 250.724ZM161.223 253.011C161.802 252.558 162.516 253.141 163.233 253.3L163.504 253.323C163.504 253.323 163.504 253.323 163.505 253.323L163.506 253.322C163.507 253.322 163.507 253.322 163.507 253.322C163.507 253.323 163.507 253.323 163.507 253.323C163.857 253.309 164.201 253.231 164.523 253.092C164.999 252.894 165.329 253.039 165.517 253.532C165.517 253.532 165.517 253.532 165.517 253.532C165.613 253.765 165.706 253.999 165.749 254.246C165.787 254.458 165.661 254.656 165.475 254.763L161.854 256.854C161.788 256.892 161.679 256.878 161.685 257.002C161.685 257.003 161.685 257.004 161.687 257.004C162.481 256.892 163.168 256.462 163.907 256.188C164.646 255.914 165.385 255.61 166.107 255.277C166.418 255.133 166.568 255.212 166.702 255.496C166.855 255.827 166.977 256.165 167.001 256.534C167.001 256.535 167.001 256.535 167.001 256.536C167 256.537 167 256.538 167 256.538C167.076 257.034 167.267 257.487 167.479 257.931C167.48 257.932 167.48 257.932 167.48 257.933C167.48 257.934 167.48 257.935 167.481 257.936C167.79 258.263 167.434 258.3 167.278 258.384C165.451 259.36 163.625 260.336 161.798 261.312C160.423 262.05 159.046 262.784 157.667 263.516C157.537 263.584 157.402 263.749 157.257 263.666C156.491 263.227 155.664 263.507 154.87 263.424C154.779 263.414 154.687 263.414 154.595 263.416C154.445 263.419 154.299 263.485 154.15 263.501C154.088 263.507 154.025 263.504 153.961 263.498C153.96 263.498 153.96 263.498 153.959 263.498L153.959 263.499C153.958 263.499 153.957 263.499 153.956 263.498H153.955C153.955 263.498 153.955 263.498 153.955 263.498H153.953C153.953 263.498 153.953 263.498 153.953 263.498C153.953 263.497 153.953 263.497 153.953 263.497C153.58 263.564 153.211 263.559 152.862 263.391C152.639 263.284 152.452 263.317 152.349 263.541C152.167 263.936 151.887 263.888 151.587 263.749C151.265 263.602 150.947 263.442 150.629 263.287C150.628 263.286 150.627 263.286 150.627 263.287C150.626 263.287 150.626 263.287 150.625 263.287C150.316 263.178 149.992 263.099 149.723 262.91C149.539 262.779 149.335 262.648 149.229 262.449C149.168 262.334 149.242 262.232 149.532 262.135C151.041 261.629 152.492 260.915 153.9 260.171L154.558 259.824L156.398 258.705C156.403 258.703 156.407 258.698 156.409 258.693C156.416 258.677 156.425 258.663 156.434 258.651C156.448 258.632 156.425 258.575 156.402 258.574C156.399 258.574 156.396 258.575 156.393 258.576C154.593 259.395 152.793 260.214 150.993 261.035C150.424 261.295 149.853 261.555 149.291 261.832C149.043 261.955 148.893 261.968 148.833 261.632C148.738 261.104 148.614 260.58 148.762 260.041C148.762 260.04 148.762 260.04 148.763 260.04C148.763 260.039 148.764 260.039 148.764 260.039C148.763 259.967 148.782 259.897 148.819 259.837C148.892 259.719 149.036 259.667 149.135 259.569C149.501 259.204 149.329 258.732 149.229 258.282C149.074 257.589 149.104 257.525 149.776 257.297C151.877 256.314 153.98 255.332 156.082 254.351C156.989 253.93 157.905 253.529 158.799 253.079C159.185 252.885 159.518 252.828 159.859 253.127C160.312 253.523 160.759 253.421 161.158 253.066C161.18 253.047 161.202 253.029 161.223 253.011ZM168.057 259.124C168.205 259.115 168.321 259.197 168.434 259.405C168.635 259.777 169.189 260.068 169.101 260.423C169.033 260.696 168.45 260.835 168.093 261.029C167.28 261.471 166.466 261.91 165.65 262.348C165.641 262.353 165.633 262.363 165.629 262.372C165.608 262.417 165.657 262.489 165.705 262.482C165.721 262.479 165.737 262.478 165.753 262.476C165.759 262.475 165.764 262.474 165.77 262.471C166.901 261.998 168.032 261.526 169.164 261.055C169.31 260.994 169.464 260.846 169.609 261.051C169.609 261.051 169.609 261.052 169.609 261.052C169.608 261.052 169.608 261.052 169.608 261.052C169.917 261.489 170.381 261.481 170.831 261.515C170.831 261.515 170.831 261.516 170.831 261.516C170.831 261.517 170.832 261.517 170.832 261.517H170.833V261.516C171.082 261.475 171.318 261.375 171.522 261.223C171.846 260.999 171.977 261.158 172.035 261.468C172.035 261.468 172.035 261.468 172.035 261.468C172.035 261.468 172.034 261.468 172.034 261.468C172.075 261.687 172.101 261.912 172.029 262.133C171.29 262.642 170.429 262.879 169.644 263.285C169.498 263.361 169.35 263.433 169.202 263.506C169.197 263.508 169.192 263.513 169.188 263.518C169.159 263.555 169.201 263.644 169.247 263.638C169.3 263.631 169.355 263.625 169.41 263.621C169.415 263.621 169.421 263.619 169.426 263.618L170.026 263.427C170.65 263.228 171.266 264.012 170.713 264.363L170.712 264.364C170.711 264.365 170.712 264.366 170.713 264.366C170.714 264.365 170.715 264.366 170.714 264.367C170.471 264.721 170.022 264.858 169.822 265.256C169.81 265.278 169.798 265.3 169.784 265.32L169.183 266.186C168.998 266.453 168.847 266.744 168.673 267.019C168.485 267.317 168.27 267.599 168.162 267.943C168.162 267.943 168.162 267.944 168.161 267.944C168.161 267.944 168.161 267.944 168.161 267.945C168.131 268.109 168.101 268.272 168.072 268.436C168.048 268.817 168.355 269.266 168.128 269.544C167.917 269.802 167.471 269.86 167.124 269.993C164.496 270.995 161.865 271.991 159.232 272.98C159.059 273.046 158.849 273.277 158.691 273.081C158.609 272.979 158.559 272.853 158.547 272.721C158.536 272.589 158.564 272.456 158.628 272.341C158.628 272.341 158.628 272.341 158.628 272.341C158.836 271.564 159.115 270.807 159.078 269.974C159.067 269.703 159.265 269.593 159.484 269.527C159.583 269.498 159.673 269.446 159.761 269.393C159.84 269.345 159.926 269.313 160.016 269.297C160.041 269.293 160.061 269.274 160.085 269.266C160.108 269.257 160.136 269.261 160.158 269.249C160.834 268.878 161.532 268.551 162.248 268.269C162.326 268.238 162.388 268.173 162.464 268.137C162.538 268.101 162.627 268.093 162.698 268.052C162.947 267.911 163.2 267.784 163.474 267.706C163.487 267.702 163.5 267.697 163.512 267.691L165.431 266.75L165.381 266.697C165.349 266.662 165.299 266.65 165.254 266.664C163.5 267.252 161.74 267.821 159.997 268.44C159.852 268.492 159.723 268.528 159.614 268.537C159.092 268.579 158.97 267.801 158.651 267.387L158.443 267.1C158.443 267.1 158.443 267.1 158.443 267.1C158.444 267.099 158.444 267.099 158.443 267.099H158.442C158.307 266.892 158.211 266.66 158.16 266.416C158.139 266.318 158.135 266.217 158.137 266.116C158.14 265.981 158.143 265.845 158.146 265.71V265.708C158.146 265.708 158.146 265.708 158.146 265.708C158.146 265.708 158.146 265.708 158.146 265.707C158.137 265.328 158.193 264.945 158.005 264.583C157.862 264.305 158.163 264.317 158.27 264.26C159.973 263.346 161.683 262.451 163.392 261.547C164.846 260.779 166.304 260.019 167.749 259.233C167.868 259.168 167.968 259.13 168.057 259.124ZM172.029 262.133C172.019 262.127 172.017 262.131 172.028 262.133C172.029 262.133 172.029 262.133 172.029 262.133ZM168.206 270.058C168.314 270.065 168.354 270.161 168.367 270.327C168.42 271.058 168.344 271.754 167.853 272.336C167.853 272.336 167.853 272.336 167.853 272.336C167.853 272.336 167.853 272.337 167.853 272.337C167.854 272.337 167.854 272.336 167.854 272.337C167.516 273.188 166.964 273.852 166.156 274.226C164.254 275.105 162.331 275.934 160.429 276.811C160.014 277.003 159.944 276.881 159.97 276.485C159.981 276.314 159.94 276.139 159.923 275.966V275.965C159.782 275.336 159.53 274.748 159.256 274.174C159.144 273.938 159.191 273.855 159.41 273.76C162.28 272.548 165.147 271.329 168.011 270.104C168.092 270.069 168.156 270.054 168.206 270.058ZM171.363 271.146C171.398 271.146 171.433 271.151 171.466 271.161C171.779 271.251 171.62 271.583 171.615 271.821C171.529 272.932 171.341 273.983 170.185 274.481C170.02 274.553 169.873 274.666 169.718 274.76C169.714 274.763 169.71 274.767 169.708 274.771C169.693 274.797 169.74 274.886 169.769 274.882C169.786 274.879 169.802 274.875 169.818 274.87C169.819 274.869 169.819 274.869 169.82 274.868C169.82 274.867 169.82 274.866 169.821 274.866L170.121 274.772C170.441 274.671 170.767 274.899 170.67 275.221C170.655 275.27 170.639 275.318 170.622 275.366C170.61 275.396 170.601 275.428 170.595 275.46C170.499 275.957 170.482 276.492 169.862 276.676C169.334 276.832 169.151 276.762 168.906 276.204C168.906 276.204 168.906 276.204 168.905 276.204C168.905 276.204 168.905 276.203 168.905 276.203C168.822 275.88 168.905 275.573 168.983 275.265C168.985 275.257 168.989 275.25 168.994 275.243C169.004 275.232 169.014 275.22 169.025 275.209C169.056 275.177 169.043 275.092 169.01 275.064C169.003 275.057 168.996 275.047 168.994 275.038C168.876 274.416 169.285 273.869 169.222 273.23C169.192 272.922 169.622 272.664 169.936 272.715C170.381 272.789 170.494 272.52 170.635 272.22C170.635 272.22 170.635 272.22 170.635 272.22L170.636 272.219C170.716 272.016 170.784 271.807 170.879 271.611C170.985 271.392 171.135 271.147 171.363 271.146ZM166.151 274.631C166.151 274.63 166.152 274.631 166.152 274.631C166.152 274.631 166.152 274.631 166.152 274.631C166.187 275.062 166.015 275.424 165.884 275.782C165.709 276.255 165.508 276.657 165.273 277.103C165.263 277.122 165.254 277.141 165.247 277.162C165.247 277.162 165.247 277.163 165.247 277.164C165.322 277.578 165.097 277.804 164.778 277.986C164.707 278.027 164.636 278.068 164.565 278.109C163.74 278.59 163.213 279.595 162.301 279.879C162.056 279.955 161.798 279.948 161.55 279.848C161.424 279.797 161.293 279.756 161.166 279.712C161.05 279.672 160.947 279.604 160.866 279.492C160.866 279.491 160.866 279.491 160.865 279.491H160.865L160.864 279.49C160.864 279.49 160.864 279.49 160.864 279.49C160.585 279.324 160.349 279.12 160.216 278.824C160.158 278.698 160.105 278.568 160.057 278.437C159.931 278.097 160.054 277.868 160.466 277.656C162.347 276.687 164.205 275.671 166.151 274.631Z" fill="#F2880C"/>
</svg>
